<svg width="230" height="180" viewBox="0 0 230 180" fill="none" xmlns="http://www.w3.org/2000/svg">
<g clip-path="url(#clip0)">
<path d="M25.5459 161.22H180.295C183.628 161.22 186.343 158.532 186.343 155.205V140.777C186.343 137.462 183.641 134.762 180.295 134.762H25.5459V161.22Z" fill="url(#paint0_linear)"/>
<path d="M2.52991 137.498V158.508H0.178604V161.232H101.272C104.496 161.232 107.102 158.628 107.102 155.434V140.584C107.102 137.377 104.484 134.786 101.272 134.786H0.178604V137.51H2.52991V137.498Z" fill="#495DA1"/>
<path d="M2.52976 158.508H96.5696C99.7936 158.508 102.399 155.916 102.399 152.71V143.308C102.399 140.101 99.7936 137.51 96.5696 137.51H2.52976V158.508Z" fill="#FAE6DE"/>
<path d="M18.165 141.982H56.113V142.729H18.165V141.982Z" fill="#DECCC5"/>
<path d="M33.3756 149.479H73.9053V149.998H33.3756V149.479Z" fill="#DECCC5"/>
<path d="M82.6195 134.774H193.906C197.045 134.774 199.591 132.243 199.591 129.121V113.969C199.591 110.847 197.045 108.316 193.906 108.316H82.6195V134.774Z" fill="url(#paint1_linear)"/>
<path d="M65.8696 111.04V132.05H64.1607V134.774H136.106C139.33 134.774 141.948 132.17 141.948 128.964V114.126C141.948 110.919 139.33 108.316 136.106 108.316H64.1607V111.04H65.8696Z" fill="#F08533"/>
<path d="M65.8695 132.05H133.645C136.348 132.05 138.53 129.868 138.53 127.192V115.909C138.53 113.221 136.348 111.052 133.645 111.052H65.8816V132.05H65.8695Z" fill="#FAE6DE"/>
<path d="M77.2381 115.524H104.848V116.271H77.2381V115.524Z" fill="#DECCC5"/>
<path d="M88.3159 123.021H117.792V123.54H88.3159V123.021Z" fill="#DECCC5"/>
<path d="M7.35379 129.41H51.7982V134.774H7.35379V129.41Z" fill="url(#paint2_linear)"/>
<path d="M6.44462 124.034H50.889V129.398H6.44462V124.034Z" fill="url(#paint3_linear)"/>
<path d="M5.69339 118.67H50.1378V124.034H5.69339V118.67Z" fill="url(#paint4_linear)"/>
<path d="M7.07486 113.306H51.5193V118.67H7.07486V113.306Z" fill="url(#paint5_linear)"/>
<path d="M8.06886 107.942H52.5133V113.306H8.06886V107.942Z" fill="url(#paint6_linear)"/>
<path d="M6.25076 102.578H50.6952V107.942H6.25076V102.578Z" fill="url(#paint7_linear)"/>
<path d="M2.25129 103.325L46.6836 102.277L46.5624 96.9005L2.13009 97.9612L2.25129 103.325Z" fill="url(#paint8_linear)"/>
<path d="M155.825 160.883C155.825 160.883 155.34 164.8 154.698 166.536C154.056 168.26 150.577 172.249 152.044 176.082C153.631 180.241 160.588 176.227 163.424 174.961C166.26 173.696 165.618 171.394 165.921 168.573C166.224 165.752 167.606 165.68 167.097 163.691C166.588 161.714 163.485 157.917 163.485 157.917L155.825 160.883Z" fill="#213A70"/>
<path d="M162.152 155.868C162.152 155.868 163.933 158.351 163.885 158.411C163.836 158.484 156.261 163.064 155.74 161.581C155.316 160.4 155.146 158.689 155.146 158.689L162.152 155.868Z" fill="#EEA886"/>
<path d="M187.822 163.643C187.822 163.643 190.137 165.656 192.21 168.754C194.282 171.851 199.785 172.008 200.027 176.239C200.257 180.458 192.537 180.59 188.489 179.216C184.429 177.842 183.823 173.72 181.374 172.683C178.926 171.646 177.653 170.815 177.835 168.802C178.029 166.789 179.387 163.522 179.387 163.522C179.387 163.522 180.914 164.004 181.811 164.101C182.683 164.197 185.701 164.233 187.822 163.643Z" fill="#213A70"/>
<path d="M160.031 49.1915C160.031 49.1915 161.582 58.3765 162.83 64.4517C163.34 66.9107 163.8 68.8634 164.079 69.4781C164.442 70.2496 167.351 73.3595 170.927 77.0238C177.193 83.4365 185.471 91.5126 185.471 91.5126L188.707 85.4013C188.707 85.4013 181.35 76.831 176.369 71.1054C174.066 68.4656 172.26 66.4285 171.933 66.1272C170.89 65.199 169.678 56.0622 167.982 48.5406C166.285 41.019 162.879 36.8484 162.879 36.8484L160.031 49.1915Z" fill="#FFCA55"/>
<path d="M170.927 77.0118C177.193 83.4245 185.471 91.5005 185.471 91.5005L188.707 85.3892C188.707 85.3892 181.35 76.819 176.369 71.0934C174.842 71.8528 172.042 73.6247 170.927 77.0118Z" fill="#EEA886"/>
<path d="M187.458 160.834L187.822 163.643C187.822 163.643 183.798 165.053 179.374 163.522L179.289 161.015L187.458 160.834Z" fill="#EEA886"/>
<path d="M130.373 90.2589C130.143 91.0786 172.963 90.2589 172.963 90.2589C172.963 90.2589 161.122 81.6886 160.346 79.3984C159.582 77.1082 163.364 63.3668 163.861 58.8948C164.261 55.3148 165.242 39.3073 162.879 36.8604C160.394 34.305 151.474 31.629 151.474 31.629L138.457 32.1112C138.457 32.1112 136.312 32.5572 134.772 33.2684C133.233 33.9795 124.458 37.0894 123.028 41.4529C121.598 45.8164 131.791 59.8471 131.791 59.8471C131.791 59.8471 131.815 60.4739 131.839 61.5105C131.876 62.8846 131.936 64.982 131.985 67.2481C132.058 70.1893 132.118 73.4318 132.118 75.7943C132.118 81.3511 130.615 89.4513 130.373 90.2589Z" fill="#FFCA55"/>
<path d="M130.373 90.2589C130.373 90.2589 124.543 98.7689 124.47 104.579C124.385 110.389 134.809 129.844 136.384 132.628C141.123 140.993 154.116 159.038 154.116 159.038C154.116 159.038 156.358 158.978 163.351 156.278C163.351 156.278 154.71 132.435 153.607 129.964C148.965 119.465 146.359 112.028 147.923 110.232C149.486 108.436 153.74 106.628 154.976 105.567C156.213 104.507 177.702 109.605 179.956 110.184C185.786 111.691 183.131 121.78 181.835 126.3C179.677 133.87 177.787 161.208 177.787 161.208C177.787 161.208 181.944 162.968 188.901 161.485C188.901 161.485 202.56 112.125 202.996 107.219C203.433 102.313 203.651 94.2125 169.981 88.0651L130.373 90.2589Z" fill="#E8E8E8"/>
<path d="M147.899 3.50738C147.899 3.50738 159.194 0.976073 156.613 15.1152C154.031 29.2544 151.316 30.3633 144.505 27.4463C137.693 24.5172 138.299 15.4648 137.96 11.0169C137.609 6.56906 144.299 3.65203 147.899 3.50738Z" fill="#EEA886"/>
<path d="M150.892 35.2573C150.892 35.2573 145.886 40.5368 137.984 35.7394C137.984 35.7394 139.754 24.3124 138.82 18.7435C137.887 13.1746 149.135 27.3741 149.135 27.3741C148.989 27.4584 148.892 27.9888 148.868 28.7361C148.844 29.375 148.88 30.1826 148.989 31.0023C149.22 32.8465 149.789 34.7992 150.892 35.2573Z" fill="#EEA886"/>
<path d="M138.505 18.2614C138.505 18.2614 138.796 13.8015 140.433 13.6689C142.069 13.5242 142.323 15.3202 142.323 15.3202L143.972 15.6336C143.972 15.6336 143.45 11.7282 145.087 11.0411C146.723 10.3541 155.667 13.1867 156.989 12.0416C158.298 10.8965 157.679 2.97711 155.316 1.89226C152.94 0.807416 146.396 -1.61541 141.596 1.60297C141.596 1.60297 137.851 1.18109 137.306 4.18249C136.736 7.19595 137.487 16.0314 138.505 18.2614Z" fill="#3A3F47"/>
<path d="M148.977 30.9903C140.82 28.4831 140.202 23.6013 140.19 23.5289C142.881 28.1214 148.856 28.7241 148.856 28.7241C148.844 29.363 148.88 30.1706 148.977 30.9903Z" fill="#A77860"/>
<path d="M134.639 33.3285C134.639 33.3285 140.614 45.1533 150.262 44.3939C159.909 43.6345 151.91 31.7494 151.474 31.6289C150.989 31.5083 141.572 29.1699 134.639 33.3285Z" fill="#EEA886"/>
<path d="M177.859 89.6684C177.859 89.6684 148.286 93.2966 130.373 90.2711L164.6 86.0161C164.612 86.0161 164.818 86.884 177.859 89.6684Z" fill="#FFCA55"/>
<path d="M155.752 84.6781L157.958 85.7871C157.958 85.7871 157.461 89.2706 156.249 90.3193L153.777 89.6925C153.764 89.6925 154.286 85.8714 155.752 84.6781Z" fill="#EEA886"/>
<path d="M121.525 77.5424C121.961 78.0487 127.779 80.3751 134.348 82.8943C143.317 86.3297 153.437 89.5842 153.437 89.5842L155.74 84.6783C155.74 84.6783 145.147 78.9527 137.984 74.9388C134.603 73.0463 131.985 71.5276 131.621 71.178C130.47 70.0931 130.167 68.3333 131.015 65.2837C131.864 62.234 133.815 48.2154 134.033 46.5761C134.251 44.9368 133.488 40.5733 129.367 40.3563C125.258 40.1394 123.161 41.2965 123.161 41.2965C123.161 41.2965 122.131 41.7184 121.355 51.6508C120.592 61.5711 120.483 76.3491 121.525 77.5424Z" fill="#FFCA55"/>
<path d="M131.839 61.4987C131.876 62.8728 131.936 64.9702 131.985 67.2363C135.996 57.4486 133.681 49.6377 133.645 49.5051C134.081 52.169 131.876 61.3661 131.839 61.4987Z" fill="#C9A043"/>
<path d="M162.83 64.4517C163.339 66.9107 163.8 68.8634 164.079 69.4781C165.448 62.8726 164.212 54.4349 164.212 54.4349C164.03 58.4609 162.83 64.4517 162.83 64.4517Z" fill="#C9A043"/>
<path d="M134.348 82.8942C143.317 86.3296 153.765 89.6926 153.765 89.6926L155.74 84.6782C155.74 84.6782 145.147 78.9526 137.984 74.9387C137.984 74.9266 135.378 76.1923 134.348 82.8942Z" fill="#EEA886"/>
<path d="M156.383 89.9817L198.415 89.3669L177.193 100.083L156.383 89.9817Z" fill="#444C94"/>
<path d="M177.193 100.083L156.383 92.0672V89.9819L178.841 98.0339L177.193 100.083Z" fill="#303669"/>
<path d="M157.473 85.8592C157.473 85.8592 160.103 85.4494 161.909 85.0275C163.315 84.7021 166.806 85.148 167.691 86.0521C168.575 86.9441 171.412 93.188 171.945 93.5737C172.478 93.9594 171.666 94.8393 170.733 94.3933C170.733 94.3933 169.872 97.1296 167.739 96.105C165.606 95.0804 164.164 92.8505 163.049 92.4527C161.934 92.0549 155.437 90.0781 155.437 90.0781C155.437 90.0781 155.801 85.1963 157.473 85.8592Z" fill="#EEA886"/>
<path d="M167.06 85.6425C167.06 85.6425 168.745 86.4501 169.193 86.8117C169.63 87.1733 171.411 88.4992 171.848 88.8126C172.284 89.126 171.193 90.018 168.006 88.6439C164.806 87.2697 167.06 85.6425 167.06 85.6425Z" fill="#EEA886"/>
<path d="M177.193 100.083L189.701 66.1274L230 66.7904L218.086 98.0701L177.193 100.083Z" fill="#303669"/>
<path d="M202.597 81.1465C201.373 83.5934 201.736 86.2573 203.433 87.089C205.118 87.9328 207.481 86.631 208.717 84.184C209.941 81.7371 209.578 79.0732 207.893 78.2415C206.184 77.4098 203.821 78.7116 202.597 81.1465Z" fill="#518AFA"/>
<path d="M142.287 13.4397C142.141 12.1861 139.657 11.7401 139.463 13.6085C139.269 15.4768 140.59 18.7675 141.535 18.4421C142.469 18.1046 142.493 15.1514 142.287 13.4397Z" fill="#EEA886"/>
</g>
<defs>
<linearGradient id="paint0_linear" x1="213.552" y1="147.999" x2="12.6482" y2="147.999" gradientUnits="userSpaceOnUse">
<stop stop-color="#609FF0"/>
<stop offset="1" stop-color="#5A3F9E"/>
</linearGradient>
<linearGradient id="paint1_linear" x1="219.382" y1="121.545" x2="73.2333" y2="121.545" gradientUnits="userSpaceOnUse">
<stop stop-color="#FF9F55"/>
<stop offset="1" stop-color="#FFD255"/>
</linearGradient>
<linearGradient id="paint2_linear" x1="51.7988" y1="132.089" x2="7.3544" y2="132.089" gradientUnits="userSpaceOnUse">
<stop stop-color="#FF9340"/>
<stop offset="1" stop-color="#FFCE45"/>
</linearGradient>
<linearGradient id="paint3_linear" x1="50.8919" y1="126.723" x2="6.44766" y2="126.723" gradientUnits="userSpaceOnUse">
<stop stop-color="#F58631"/>
<stop offset="1" stop-color="#F2C23F"/>
</linearGradient>
<linearGradient id="paint4_linear" x1="50.1335" y1="121.356" x2="5.68794" y2="121.356" gradientUnits="userSpaceOnUse">
<stop stop-color="#FF9340"/>
<stop offset="1" stop-color="#FFCE45"/>
</linearGradient>
<linearGradient id="paint5_linear" x1="51.5252" y1="115.989" x2="7.0808" y2="115.989" gradientUnits="userSpaceOnUse">
<stop stop-color="#F58631"/>
<stop offset="1" stop-color="#F2C23F"/>
</linearGradient>
<linearGradient id="paint6_linear" x1="52.5137" y1="110.624" x2="8.06935" y2="110.624" gradientUnits="userSpaceOnUse">
<stop stop-color="#FF9340"/>
<stop offset="1" stop-color="#FFCE45"/>
</linearGradient>
<linearGradient id="paint7_linear" x1="50.6991" y1="105.258" x2="6.25476" y2="105.258" gradientUnits="userSpaceOnUse">
<stop stop-color="#F58631"/>
<stop offset="1" stop-color="#F2C23F"/>
</linearGradient>
<linearGradient id="paint8_linear" x1="46.1782" y1="95.2248" x2="2.66208" y2="105.112" gradientUnits="userSpaceOnUse">
<stop stop-color="#FF9340"/>
<stop offset="1" stop-color="#FFCE45"/>
</linearGradient>
<clipPath id="clip0">
<rect width="229.821" height="180" transform="matrix(-1 0 0 1 230 0)" fill="white"/>
</clipPath>
</defs>
</svg>
