<svg width="33" height="33" viewBox="0 0 33 33" fill="none" xmlns="http://www.w3.org/2000/svg">
<path d="M26.1378 2.0625H13.2302C12.9966 2.0625 12.8072 2.25188 12.8072 2.48547V4.96551C12.8072 5.1991 12.9966 5.38848 13.2302 5.38848C13.4638 5.38848 13.6532 5.1991 13.6532 4.96551V2.90845H25.7147V13.3447H24.21V12.5585C24.21 12.3249 24.0206 12.1355 23.787 12.1355H22.5944C22.3608 12.1355 22.1714 12.3249 22.1714 12.5585C22.1714 12.7921 22.3608 12.9815 22.5944 12.9815H23.3641V14.342C22.519 14.342 16.8928 14.342 16.0038 14.342V12.9815H20.6205C20.8541 12.9815 21.0435 12.7921 21.0435 12.5585C21.0435 12.3249 20.8541 12.1355 20.6205 12.1355H15.5808C15.3472 12.1355 15.1578 12.3249 15.1578 12.5585V13.3447H13.6531V6.93939C13.6531 6.70579 13.4637 6.51641 13.2301 6.51641C12.9965 6.51641 12.8071 6.70579 12.8071 6.93939V13.7677C12.8071 14.0013 12.9965 14.1907 13.2301 14.1907H15.1578V14.765C15.1578 14.9986 15.3472 15.1879 15.5808 15.1879H18.1371V16.553H17.2728C15.5403 16.553 13.8664 17.1778 12.5597 18.3124C12.1809 18.6413 11.6844 18.8225 11.1616 18.8225H10.4843V18.5009C10.4843 18.2673 10.295 18.0779 10.0614 18.0779H6.61047C6.37688 18.0779 6.1875 18.2673 6.1875 18.5009V19.5042C6.1875 19.7378 6.37688 19.9272 6.61047 19.9272C6.84407 19.9272 7.03345 19.7378 7.03345 19.5042V18.9239H9.6384V28.5666H7.03345V21.4781C7.03345 21.2445 6.84407 21.0551 6.61047 21.0551C6.37688 21.0551 6.1875 21.2445 6.1875 21.4781V28.9896C6.1875 29.2232 6.37688 29.4126 6.61047 29.4126H10.0614C10.295 29.4126 10.4843 29.2232 10.4843 28.9896V28.668H11.1617C11.6845 28.668 12.1809 28.8492 12.5597 29.1781C13.8665 30.3127 15.5403 30.9375 17.2729 30.9375H22.78C23.7597 30.9375 24.5568 30.1404 24.5568 29.1607C24.5568 28.8168 24.4586 28.4954 24.2888 28.2231C25.1963 28.1444 25.9106 27.3805 25.9106 26.453C25.9106 25.9942 25.7358 25.5754 25.4494 25.2598C25.9581 24.947 26.298 24.385 26.298 23.7453C26.298 23.0779 25.9281 22.4952 25.3826 22.1915C25.6485 21.8808 25.8093 21.4776 25.8093 21.0375C25.8093 20.0578 25.0123 19.2607 24.0325 19.2607H22.6407V18.3298C22.6407 17.4758 22.0351 16.7607 21.2308 16.5911V15.1879H23.7871C24.0207 15.1879 24.2101 14.9985 24.2101 14.7649V14.1906H26.1378C26.3713 14.1906 26.5607 14.0012 26.5607 13.7676V2.48547C26.5607 2.25188 26.3713 2.0625 26.1378 2.0625V2.0625ZM24.0325 20.1067C24.5458 20.1067 24.9634 20.5242 24.9634 21.0375C24.9634 21.5509 24.5458 21.9684 24.0325 21.9684C24.0317 21.9684 21.281 21.9684 21.281 21.9684C21.0474 21.9684 20.858 22.1578 20.858 22.3914C20.858 22.625 21.0474 22.8144 21.281 22.8144H24.5211C25.0344 22.8144 25.452 23.232 25.452 23.7453C25.452 24.2585 25.0344 24.6761 24.5211 24.6761C23.7215 24.6761 22.1386 24.6761 21.281 24.6761C21.0474 24.6761 20.858 24.8655 20.858 25.0991C20.858 25.3327 21.0474 25.5221 21.281 25.5221H24.1338C24.6471 25.5221 25.0646 25.9396 25.0646 26.453C25.0646 26.9663 24.6471 27.3838 24.1338 27.3838C23.2157 27.3838 22.1626 27.3838 21.281 27.3838C21.0474 27.3838 20.858 27.5732 20.858 27.8068C20.858 28.0404 21.0474 28.2298 21.281 28.2298H22.78C23.2933 28.2298 23.7108 28.6474 23.7108 29.1607C23.7108 29.6739 23.2933 30.0916 22.78 30.0916H17.2729C15.7441 30.0916 14.2673 29.5403 13.1143 28.5394C12.5817 28.0768 11.8883 27.822 11.1618 27.822H10.4843V19.6685H11.1617C11.8882 19.6685 12.5816 19.4137 13.1143 18.9512C14.2672 17.9502 15.7441 17.399 17.2728 17.399H18.1371V19.2607H17.2165C16.9829 19.2607 16.7935 19.4501 16.7935 19.6837C16.7935 19.9173 16.9829 20.1063 17.2165 20.1067C18.6152 20.1091 24.0382 20.1069 24.0325 20.1067ZM21.7948 18.3298V19.2607H21.2308V17.4744C21.5622 17.617 21.7948 17.9468 21.7948 18.3298ZM20.3849 19.2607H18.9831V15.1879H20.3849V19.2607Z" fill="white"/>
<path d="M19.9531 10.2018L22.5874 7.56743C23.1093 7.04548 23.1093 6.1962 22.5874 5.6742C22.0654 5.15219 21.2161 5.15225 20.6942 5.6742L18.8926 7.47578L18.3662 6.94944C17.8431 6.4263 16.9962 6.42619 16.473 6.94944C15.9511 7.47138 15.9511 8.32066 16.473 8.84267L17.8321 10.2018C18.4169 10.7865 19.3683 10.7865 19.9531 10.2018ZM17.0712 7.54758C17.2637 7.35504 17.5754 7.35498 17.768 7.54758L18.586 8.36555C18.7551 8.53463 19.0301 8.53457 19.1991 8.36555L21.2924 6.27234C21.4845 6.08025 21.7971 6.08025 21.9893 6.27234C22.1818 6.46488 22.1818 6.77664 21.9893 6.96923L19.3549 9.60357C19.0999 9.85848 18.6852 9.85848 18.4303 9.60357L17.0712 8.24441C16.8787 8.05193 16.8786 7.74017 17.0712 7.54758Z" fill="white"/>
</svg>
