<svg width="32" height="32" viewBox="0 0 32 32" fill="none" xmlns="http://www.w3.org/2000/svg">
<path d="M17.7784 5.33347C20.7206 5.33347 23.1117 7.72458 23.1117 10.6668C23.1117 13.609 20.7206 16.0001 17.7784 16.0001C14.8362 16.0001 12.445 13.609 12.445 10.6668C12.445 7.72458 14.8362 5.33347 17.7784 5.33347ZM17.7784 4.44458C14.3384 4.44458 11.5562 7.2268 11.5562 10.6668C11.5562 14.1068 14.3384 16.889 17.7784 16.889C21.2184 16.889 24.0006 14.1068 24.0006 10.6668C24.0006 7.2268 21.2184 4.44458 17.7784 4.44458Z" fill="white"/>
<path d="M20.4442 10.6667L17.7775 8L15.1108 10.6667L17.7775 13.3333L20.4442 10.6667Z" stroke="white" stroke-linecap="round" stroke-linejoin="round"/>
<path d="M5.33393 13.3335H3.55615V27.5557H5.33393C6.31171 27.5557 7.11171 26.7557 7.11171 25.7779V15.1113C7.11171 14.1335 6.31171 13.3335 5.33393 13.3335Z" stroke="white" stroke-miterlimit="10"/>
<path d="M7.55615 16.4446H10.4895C10.8895 16.4446 11.2806 16.5779 11.6006 16.8357L15.0673 19.609C15.3784 19.8579 15.7784 20.0001 16.1784 20.0001H18.2228C19.2006 20.0001 20.0006 20.8001 20.0006 21.7779" stroke="white" stroke-miterlimit="10" stroke-linecap="round"/>
<path d="M12.0006 21.7776C12.0006 21.7776 20.0006 22.6665 22.6673 21.7776C25.3339 20.8887 27.1117 19.1109 27.1117 19.1109C27.1117 19.1109 28.8895 17.3331 29.7784 19.1109C30.6673 20.8887 26.2228 23.5554 26.2228 23.5554C26.2228 23.5554 20.0895 28.1509 14.2317 26.6754C13.5384 26.4976 12.9339 26.1154 12.3828 25.662C11.7339 25.1376 10.3473 24.4443 7.55615 24.4443" stroke="white" stroke-miterlimit="10" stroke-linecap="round"/>
</svg>
