<svg width="32" height="32" viewBox="0 0 32 32" fill="none" xmlns="http://www.w3.org/2000/svg">
<path d="M4.88862 8.44458H3.11084V22.6668H4.88862C5.8664 22.6668 6.6664 21.8668 6.6664 20.889V10.2224C6.6664 9.24458 5.8664 8.44458 4.88862 8.44458Z" stroke="white" stroke-miterlimit="10"/>
<path d="M19.079 17.6441C19.9927 15.6264 22.0262 14.2219 24.4 14.2219C27.6158 14.2219 30.2225 16.8086 30.2225 19.9997C30.2225 23.1908 27.6158 25.7775 24.4 25.7775C21.5245 25.7775 19.1328 23.7064 18.667 20.9953" stroke="white" stroke-miterlimit="10"/>
<path d="M26.6663 20.4447L23.9997 17.7781L21.333 20.4447L23.9997 23.1114L26.6663 20.4447Z" stroke="white" stroke-linecap="round" stroke-linejoin="round"/>
<path d="M20.0003 16.329C19.5648 16.2312 19.5648 16.009 19.2359 15.6801C18.347 14.7912 17.1381 14.2401 15.8848 14.2668C15.3959 14.2757 14.9425 14.3824 14.667 14.6579C13.7781 15.5468 13.7781 17.3246 16.4448 17.3246C20.8892 17.3246 21.7781 19.1024 21.7781 19.1024C21.7781 19.1024 22.667 20.8801 20.0003 20.8801C17.3337 20.8801 16.4448 20.8801 16.4448 20.8801C16.4448 20.8801 12.0003 21.769 10.2225 20.8801C8.44477 19.9912 7.55588 19.1024 6.66699 19.1024" stroke="white" stroke-miterlimit="10"/>
<path d="M6.66699 12L11.7692 11.0756C15.3514 10.4267 19.4048 10.7467 22.0714 13.2267C22.667 13.7778 22.8892 14.2222 23.1114 14.6667" stroke="white" stroke-miterlimit="10"/>
</svg>
