<svg width="32" height="32" viewBox="0 0 32 32" fill="none" xmlns="http://www.w3.org/2000/svg">
<path d="M27.0767 20.9242V11.076C27.0762 10.6442 26.9623 10.2202 26.7463 9.8464C26.5303 9.4726 26.2198 9.1622 25.8459 8.94632L17.2305 4.02223C16.8563 3.80614 16.4319 3.69238 15.9998 3.69238C15.5677 3.69238 15.1432 3.80614 14.769 4.02223L6.15362 8.94632C5.77979 9.1622 5.46929 9.4726 5.25327 9.8464C5.03724 10.2202 4.92329 10.6442 4.92285 11.076V20.9242C4.92329 21.3559 5.03724 21.78 5.25327 22.1538C5.46929 22.5275 5.77979 22.838 6.15362 23.0538L14.769 27.9779C15.1432 28.194 15.5677 28.3078 15.9998 28.3078C16.4319 28.3078 16.8563 28.194 17.2305 27.9779L25.8459 23.0538C26.2198 22.838 26.5303 22.5275 26.7463 22.1538C26.9623 21.78 27.0762 21.3559 27.0767 20.9242Z" stroke="white" stroke-linecap="round" stroke-linejoin="round"/>
<path d="M10.4614 6.76919L15.3845 9.84612L20.923 6.15381" stroke="white" stroke-linecap="round" stroke-linejoin="round"/>
<path d="M9.84593 25.2308V19.2863L4.92285 16" stroke="white" stroke-linecap="round" stroke-linejoin="round"/>
<path d="M27.0767 16L20.9229 19.2863V25.8462" stroke="white" stroke-linecap="round" stroke-linejoin="round"/>
<path d="M5.53857 10.4614L16.0001 15.9999L26.4617 10.4614" stroke="white" stroke-linecap="round" stroke-linejoin="round"/>
<path d="M16 28.3077V16" stroke="white" stroke-linecap="round" stroke-linejoin="round"/>
</svg>
