<svg width="16" height="16" viewBox="0 0 16 16" fill="none" xmlns="http://www.w3.org/2000/svg">
<path d="M12.7091 10.0019C12.6244 10.1958 12.5991 10.411 12.6365 10.6195C12.674 10.8281 12.7724 11.0206 12.9191 11.1721L12.9573 11.2107C13.0756 11.3301 13.1695 11.472 13.2335 11.6281C13.2976 11.7842 13.3305 11.9516 13.3305 12.1206C13.3305 12.2895 13.2976 12.4569 13.2335 12.613C13.1695 12.7691 13.0756 12.911 12.9573 13.0304C12.8391 13.15 12.6987 13.2448 12.5442 13.3095C12.3897 13.3742 12.2241 13.4075 12.0568 13.4075C11.8896 13.4075 11.7239 13.3742 11.5694 13.3095C11.4149 13.2448 11.2746 13.15 11.1564 13.0304L11.1182 12.9918C10.9682 12.8436 10.7777 12.7441 10.5713 12.7063C10.3649 12.6685 10.1519 12.694 9.96 12.7796C9.77178 12.8611 9.61126 12.9965 9.4982 13.169C9.38513 13.3415 9.32445 13.5436 9.32364 13.7505V13.8598C9.32364 14.2009 9.18955 14.528 8.95086 14.7692C8.71218 15.0103 8.38846 15.1458 8.05091 15.1458C7.71336 15.1458 7.38964 15.0103 7.15096 14.7692C6.91227 14.528 6.77818 14.2009 6.77818 13.8598V13.802C6.77325 13.5891 6.70508 13.3827 6.58251 13.2096C6.45994 13.0364 6.28865 12.9045 6.09091 12.8311C5.89897 12.7455 5.68606 12.7199 5.47963 12.7578C5.27319 12.7956 5.0827 12.895 4.93273 13.0432L4.89455 13.0818C4.77634 13.2014 4.63598 13.2962 4.48147 13.361C4.32696 13.4257 4.16135 13.459 3.99409 13.459C3.82683 13.459 3.66122 13.4257 3.50671 13.361C3.35221 13.2962 3.21184 13.2014 3.09364 13.0818C2.9753 12.9624 2.88143 12.8206 2.81738 12.6644C2.75333 12.5083 2.72036 12.341 2.72036 12.172C2.72036 12.003 2.75333 11.8357 2.81738 11.6795C2.88143 11.5234 2.9753 11.3816 3.09364 11.2622L3.13182 11.2236C3.27852 11.072 3.37694 10.8796 3.41437 10.671C3.4518 10.4624 3.42653 10.2473 3.34182 10.0533C3.26115 9.86315 3.12721 9.70096 2.95648 9.58672C2.78575 9.47247 2.58568 9.41116 2.38091 9.41034H2.27273C1.93518 9.41034 1.61146 9.27485 1.37277 9.03368C1.13409 8.79251 1 8.46542 1 8.12435C1 7.78329 1.13409 7.45619 1.37277 7.21503C1.61146 6.97386 1.93518 6.83837 2.27273 6.83837H2.33C2.54063 6.83339 2.74491 6.7645 2.91628 6.64066C3.08765 6.51681 3.21818 6.34374 3.29091 6.14394C3.37562 5.95 3.40089 5.73487 3.36346 5.52629C3.32603 5.3177 3.22761 5.12523 3.08091 4.97369L3.04273 4.93511C2.92439 4.81568 2.83052 4.67385 2.76647 4.51773C2.70242 4.36162 2.66945 4.19428 2.66945 4.02528C2.66945 3.85628 2.70242 3.68894 2.76647 3.53282C2.83052 3.37671 2.92439 3.23488 3.04273 3.11544C3.16093 2.99588 3.3013 2.90103 3.4558 2.83631C3.61031 2.77159 3.77593 2.73828 3.94318 2.73828C4.11044 2.73828 4.27605 2.77159 4.43056 2.83631C4.58507 2.90103 4.72543 2.99588 4.84364 3.11544L4.88182 3.15402C5.0318 3.30226 5.22228 3.4017 5.42872 3.43952C5.63515 3.47734 5.84806 3.4518 6.04 3.36621H6.09091C6.27913 3.2847 6.43965 3.14937 6.55271 2.97686C6.66578 2.80435 6.72646 2.6022 6.72727 2.39529V2.28598C6.72727 1.94492 6.86136 1.61783 7.10005 1.37666C7.33873 1.13549 7.66245 1 8 1C8.33755 1 8.66127 1.13549 8.89995 1.37666C9.13864 1.61783 9.27273 1.94492 9.27273 2.28598V2.34385C9.27354 2.55076 9.33422 2.75291 9.44729 2.92542C9.56035 3.09793 9.72087 3.23326 9.90909 3.31477C10.101 3.40036 10.3139 3.4259 10.5204 3.38808C10.7268 3.35026 10.9173 3.25082 11.0673 3.10258L11.1055 3.06401C11.2237 2.94444 11.364 2.84959 11.5185 2.78487C11.673 2.72015 11.8387 2.68684 12.0059 2.68684C12.1732 2.68684 12.3388 2.72015 12.4933 2.78487C12.6478 2.84959 12.7882 2.94444 12.9064 3.06401C13.0247 3.18344 13.1186 3.32527 13.1826 3.48138C13.2467 3.6375 13.2796 3.80484 13.2796 3.97384C13.2796 4.14284 13.2467 4.31018 13.1826 4.46629C13.1186 4.62241 13.0247 4.76424 12.9064 4.88367L12.8682 4.92225C12.7215 5.07379 12.6231 5.26626 12.5856 5.47485C12.5482 5.68343 12.5735 5.89856 12.6582 6.0925V6.14394C12.7388 6.33412 12.8728 6.49631 13.0435 6.61055C13.2143 6.7248 13.4143 6.7861 13.6191 6.78693H13.7273C14.0648 6.78693 14.3885 6.92242 14.6272 7.16359C14.8659 7.40476 15 7.73185 15 8.07291C15 8.41398 14.8659 8.74107 14.6272 8.98224C14.3885 9.22341 14.0648 9.3589 13.7273 9.3589H13.67C13.4652 9.35972 13.2652 9.42103 13.0944 9.53528C12.9237 9.64952 12.7898 9.81171 12.7091 10.0019V10.0019Z" stroke="#12265E" stroke-linecap="round" stroke-linejoin="round"/>
<path d="M7.99991 10.002C9.05427 10.002 9.909 9.13835 9.909 8.07301C9.909 7.00767 9.05427 6.14404 7.99991 6.14404C6.94555 6.14404 6.09082 7.00767 6.09082 8.07301C6.09082 9.13835 6.94555 10.002 7.99991 10.002Z" stroke="#12265E" stroke-linecap="round" stroke-linejoin="round"/>
</svg>
