<svg width="21" height="21" viewBox="0 0 21 21" fill="none" xmlns="http://www.w3.org/2000/svg">
<g opacity="0.7">
<path d="M16.975 13.125C16.8585 13.3889 16.8238 13.6817 16.8752 13.9655C16.9267 14.2494 17.062 14.5113 17.2638 14.7175L17.3162 14.77C17.479 14.9325 17.608 15.1255 17.6961 15.338C17.7842 15.5504 17.8295 15.7781 17.8295 16.0081C17.8295 16.2381 17.7842 16.4658 17.6961 16.6783C17.608 16.8907 17.479 17.0837 17.3162 17.2462C17.1537 17.409 16.9607 17.538 16.7483 17.6261C16.5358 17.7142 16.3081 17.7595 16.0781 17.7595C15.8481 17.7595 15.6204 17.7142 15.408 17.6261C15.1955 17.538 15.0025 17.409 14.84 17.2462L14.7875 17.1937C14.5813 16.992 14.3194 16.8567 14.0355 16.8052C13.7517 16.7538 13.4589 16.7885 13.195 16.905C12.9362 17.0159 12.7155 17.2001 12.56 17.4348C12.4046 17.6696 12.3211 17.9447 12.32 18.2262V18.375C12.32 18.8391 12.1356 19.2842 11.8074 19.6124C11.4792 19.9406 11.0341 20.125 10.57 20.125C10.1059 20.125 9.66075 19.9406 9.33256 19.6124C9.00437 19.2842 8.82 18.8391 8.82 18.375V18.2962C8.81323 18.0066 8.71948 17.7257 8.55095 17.4901C8.38241 17.2545 8.14689 17.075 7.875 16.975C7.61109 16.8585 7.31833 16.8238 7.03448 16.8752C6.75064 16.9267 6.48872 17.062 6.2825 17.2637L6.23 17.3162C6.06747 17.479 5.87447 17.608 5.66202 17.6961C5.44957 17.7842 5.22185 17.8295 4.99187 17.8295C4.7619 17.8295 4.53418 17.7842 4.32173 17.6961C4.10928 17.608 3.91628 17.479 3.75375 17.3162C3.59104 17.1537 3.46196 16.9607 3.3739 16.7483C3.28583 16.5358 3.2405 16.3081 3.2405 16.0781C3.2405 15.8481 3.28583 15.6204 3.3739 15.408C3.46196 15.1955 3.59104 15.0025 3.75375 14.84L3.80625 14.7875C4.00797 14.5813 4.14329 14.3194 4.19475 14.0355C4.24622 13.7517 4.21148 13.4589 4.095 13.195C3.98408 12.9362 3.79991 12.7155 3.56516 12.56C3.3304 12.4046 3.05531 12.3211 2.77375 12.32H2.625C2.16087 12.32 1.71575 12.1356 1.38756 11.8074C1.05937 11.4792 0.875 11.0341 0.875 10.57C0.875 10.1059 1.05937 9.66075 1.38756 9.33256C1.71575 9.00437 2.16087 8.82 2.625 8.82H2.70375C2.99337 8.81322 3.27425 8.71948 3.50989 8.55095C3.74552 8.38241 3.925 8.14689 4.025 7.875C4.14148 7.61109 4.17622 7.31833 4.12475 7.03448C4.07329 6.75064 3.93797 6.48872 3.73625 6.2825L3.68375 6.23C3.52104 6.06747 3.39196 5.87447 3.3039 5.66202C3.21583 5.44957 3.1705 5.22185 3.1705 4.99187C3.1705 4.7619 3.21583 4.53418 3.3039 4.32173C3.39196 4.10928 3.52104 3.91628 3.68375 3.75375C3.84628 3.59104 4.03928 3.46196 4.25173 3.3739C4.46418 3.28583 4.6919 3.2405 4.92188 3.2405C5.15185 3.2405 5.37957 3.28583 5.59202 3.3739C5.80447 3.46196 5.99747 3.59104 6.16 3.75375L6.2125 3.80625C6.41872 4.00797 6.68064 4.14329 6.96448 4.19475C7.24833 4.24622 7.54109 4.21148 7.805 4.095H7.875C8.1338 3.98408 8.35452 3.79991 8.50998 3.56516C8.66545 3.3304 8.74888 3.05531 8.75 2.77375V2.625C8.75 2.16087 8.93437 1.71575 9.26256 1.38756C9.59075 1.05937 10.0359 0.875 10.5 0.875C10.9641 0.875 11.4092 1.05937 11.7374 1.38756C12.0656 1.71575 12.25 2.16087 12.25 2.625V2.70375C12.2511 2.98531 12.3346 3.2604 12.49 3.49516C12.6455 3.72991 12.8662 3.91408 13.125 4.025C13.3889 4.14148 13.6817 4.17622 13.9655 4.12475C14.2494 4.07329 14.5113 3.93797 14.7175 3.73625L14.77 3.68375C14.9325 3.52104 15.1255 3.39196 15.338 3.3039C15.5504 3.21583 15.7781 3.1705 16.0081 3.1705C16.2381 3.1705 16.4658 3.21583 16.6783 3.3039C16.8907 3.39196 17.0837 3.52104 17.2463 3.68375C17.409 3.84628 17.538 4.03928 17.6261 4.25173C17.7142 4.46418 17.7595 4.6919 17.7595 4.92187C17.7595 5.15185 17.7142 5.37957 17.6261 5.59202C17.538 5.80447 17.409 5.99747 17.2463 6.16L17.1938 6.2125C16.992 6.41872 16.8567 6.68064 16.8052 6.96448C16.7538 7.24833 16.7885 7.54109 16.905 7.805V7.875C17.0159 8.1338 17.2001 8.35451 17.4348 8.50998C17.6696 8.66545 17.9447 8.74888 18.2262 8.75H18.375C18.8391 8.75 19.2842 8.93437 19.6124 9.26256C19.9406 9.59075 20.125 10.0359 20.125 10.5C20.125 10.9641 19.9406 11.4092 19.6124 11.7374C19.2842 12.0656 18.8391 12.25 18.375 12.25H18.2962C18.0147 12.2511 17.7396 12.3346 17.5048 12.49C17.2701 12.6455 17.0859 12.8662 16.975 13.125Z" fill="white"/>
<path d="M10.5 13.125C11.9497 13.125 13.125 11.9497 13.125 10.5C13.125 9.05025 11.9497 7.875 10.5 7.875C9.05025 7.875 7.875 9.05025 7.875 10.5C7.875 11.9497 9.05025 13.125 10.5 13.125Z" stroke="#338686" stroke-linecap="round" stroke-linejoin="round"/>
</g>
</svg>
