<svg xmlns="http://www.w3.org/2000/svg" width="30" height="30" viewBox="0 0 30 30"><defs><clipPath id="4uhca"><path fill="#fff" d="M0 10C0 4.477 4.477 0 10 0h20v20c0 5.523-4.477 10-10 10H10C4.477 30 0 25.523 0 20z"/></clipPath></defs><g><g><path fill="#fff" fill-opacity=".2" d="M0 10C0 4.477 4.477 0 10 0h20v20c0 5.523-4.477 10-10 10H10C4.477 30 0 25.523 0 20z"/><path fill="none" stroke="#fff" stroke-miterlimit="50" stroke-opacity=".2" stroke-width="4" d="M0 10C0 4.477 4.477 0 10 0h20v20c0 5.523-4.477 10-10 10H10C4.477 30 0 25.523 0 20z" clip-path="url(&quot;#4uhca&quot;)"/></g><g><g/><g/><g/><g/><g/></g></g></svg>