<svg width="32" height="32" viewBox="0 0 32 32" fill="none" xmlns="http://www.w3.org/2000/svg">
<path d="M8.88873 17.7778C11.8309 17.7778 14.2221 20.1689 14.2221 23.1111C14.2221 26.0534 11.8309 28.4445 8.88873 28.4445C5.9465 28.4445 3.55539 26.0534 3.55539 23.1111C3.55539 20.1689 5.9465 17.7778 8.88873 17.7778ZM8.88873 16.8889C5.44873 16.8889 2.6665 19.6711 2.6665 23.1111C2.6665 26.5511 5.44873 29.3334 8.88873 29.3334C12.3287 29.3334 15.1109 26.5511 15.1109 23.1111C15.1109 19.6711 12.3287 16.8889 8.88873 16.8889Z" fill="white"/>
<path d="M8.88905 20.4446C10.3557 20.4446 11.5557 21.6446 11.5557 23.1112C11.5557 24.5779 10.3557 25.7779 8.88905 25.7779C7.42238 25.7779 6.22238 24.5779 6.22238 23.1112C6.22238 21.6446 7.42238 20.4446 8.88905 20.4446ZM8.88905 19.5557C6.92461 19.5557 5.3335 21.1468 5.3335 23.1112C5.3335 25.0757 6.92461 26.6668 8.88905 26.6668C10.8535 26.6668 12.4446 25.0757 12.4446 23.1112C12.4446 21.1468 10.8535 19.5557 8.88905 19.5557Z" fill="white"/>
<path d="M23.1113 16.8889C23.6002 16.8889 24.0002 17.2889 24.0002 17.7778C24.0002 18.2667 23.6002 18.6667 23.1113 18.6667C22.6224 18.6667 22.2224 18.2667 22.2224 17.7778C22.2224 17.2889 22.6224 16.8889 23.1113 16.8889ZM23.1113 16C22.1335 16 21.3335 16.8 21.3335 17.7778C21.3335 18.7556 22.1335 19.5556 23.1113 19.5556C24.0891 19.5556 24.889 18.7556 24.889 17.7778C24.889 16.8 24.0891 16 23.1113 16Z" fill="white"/>
<path d="M25.7777 8.12455V7.00455C25.7777 5.10233 24.1866 3.55566 22.2222 3.55566H9.77772C7.81328 3.55566 6.22217 5.10233 6.22217 7.00455V17.7779" stroke="white" stroke-miterlimit="10"/>
<path d="M13.3332 26.6666H25.7776C27.742 26.6666 29.3332 25.0755 29.3332 23.111V11.6088C29.3332 9.75992 27.8665 8.26659 26.0532 8.26659H11.1109C7.59094 8.26659 6.59538 7.14659 6.31982 6.11548" stroke="white" stroke-miterlimit="10"/>
</svg>
