<svg width="20" height="20" viewBox="0 0 20 20" fill="none" xmlns="http://www.w3.org/2000/svg">
<path d="M13.3476 1.5197C13.4024 1.47944 13.4583 1.47089 13.4957 1.47089C13.5343 1.47089 13.6314 1.48133 13.6996 1.57426L15.5983 4.16415H17.2488L14.7733 0.787258C14.2767 0.110237 13.2399 -0.0510998 12.5602 0.446714L11.6646 1.10311L12.4516 2.17676L13.3476 1.5197Z" fill="#0D509F"/>
<path d="M8.76991 1.52032C8.8248 1.48005 8.88096 1.47089 8.91834 1.47089C8.957 1.47089 9.05413 1.48133 9.12233 1.57426L11.021 4.16415H12.6715L10.196 0.787258C9.6991 0.110237 8.66317 -0.0510998 7.98291 0.446713L2.91016 4.16415H5.16192L8.76991 1.52032Z" fill="#0D509F"/>
<path d="M10.7407 12.6695C10.7407 11.0403 12.0662 9.71451 13.6954 9.71451H18.6956V6.71329C18.6956 6.04137 18.1504 5.49536 17.478 5.49536H1.2176C0.545183 5.49532 0 6.04128 0 6.71325V18.6257C0 19.2984 0.545183 19.8436 1.2176 19.8436H17.478C18.1504 19.8436 18.6956 19.2984 18.6956 18.6257V15.6244H13.6954C12.0661 15.6245 10.7407 14.2987 10.7407 12.6695Z" fill="#0D509F"/>
<path d="M19.3533 10.7124H13.6952C12.6148 10.7124 11.7388 11.5885 11.7388 12.6692C11.7388 13.7501 12.6148 14.626 13.6952 14.626H19.3534C19.7104 14.626 19.9998 14.3361 19.9998 13.98V11.359C19.9998 11.0022 19.7103 10.7124 19.3533 10.7124Z" fill="#0D509F"/>
</svg>
