<svg width="22" height="22" viewBox="0 0 22 22" fill="none" xmlns="http://www.w3.org/2000/svg">
<mask id="mask0" mask-type="alpha" maskUnits="userSpaceOnUse" x="0" y="0" width="22" height="22">
<path d="M11 22C4.92487 22 0 17.0751 0 11C0 4.92487 4.92487 0 11 0C17.0751 0 22 4.92487 22 11C22 17.0751 17.0751 22 11 22ZM10.2387 4.07846L9.51327 2.32925C6.88345 3.52858 6.68145 6.17806 6.51329 8.31873C6.34226 10.5413 6.16421 11.9335 4.66536 12.5404L3.92892 12.838L3.92089 14.8783L9.9025 12.4564L9.85332 12.8985C9.68057 14.5056 9.31515 15.6349 8.07894 16.2308L8.80105 17.9795C11.4782 16.793 11.6863 14.1249 11.8515 11.9682L11.8753 11.6588L13.8319 10.8674L13.7338 11.3532C13.5807 12.1043 13.5172 12.8906 13.4635 13.5824C13.298 15.7673 13.1175 17.1783 11.7199 17.9184L12.446 19.6707C15.0013 18.4552 15.2031 15.8377 15.3653 13.7221C15.5369 11.4991 15.718 10.104 17.2129 9.50006L18.0711 9.1524L18.0791 7.11239L12.046 9.55589L12.0965 9.11085C12.2681 7.53529 12.6212 6.42182 13.7998 5.81967L13.0711 4.06733C10.4643 5.2701 10.2626 7.90985 10.1009 10.0444L10.074 10.3536L8.0497 11.1733L8.1479 10.6878C8.30115 9.94563 8.35821 9.19448 8.41555 8.45834C8.58415 6.23856 8.77123 4.80512 10.2387 4.07846Z" fill="white"/>
</mask>
<g mask="url(#mask0)">
<path d="M11 22C4.92487 22 0 17.0751 0 11C0 4.92487 4.92487 0 11 0C17.0751 0 22 4.92487 22 11C22 17.0751 17.0751 22 11 22ZM10.2387 4.07846L9.51327 2.32925C6.88345 3.52858 6.68145 6.17806 6.51329 8.31873C6.34226 10.5413 6.16421 11.9335 4.66536 12.5404L3.92892 12.838L3.92089 14.8783L9.9025 12.4564L9.85332 12.8985C9.68057 14.5056 9.31515 15.6349 8.07894 16.2308L8.80105 17.9795C11.4782 16.793 11.6863 14.1249 11.8515 11.9682L11.8753 11.6588L13.8319 10.8674L13.7338 11.3532C13.5807 12.1043 13.5172 12.8906 13.4635 13.5824C13.298 15.7673 13.1175 17.1783 11.7199 17.9184L12.446 19.6707C15.0013 18.4552 15.2031 15.8377 15.3653 13.7221C15.5369 11.4991 15.718 10.104 17.2129 9.50006L18.0711 9.1524L18.0791 7.11239L12.046 9.55589L12.0965 9.11085C12.2681 7.53529 12.6212 6.42182 13.7998 5.81967L13.0711 4.06733C10.4643 5.2701 10.2626 7.90985 10.1009 10.0444L10.074 10.3536L8.0497 11.1733L8.1479 10.6878C8.30115 9.94563 8.35821 9.19448 8.41555 8.45834C8.58415 6.23856 8.77123 4.80512 10.2387 4.07846Z" fill="#12265E"/>
<path d="M22 0H0V22H22V0Z" fill="#12265E"/>
</g>
</svg>
