<svg width="22" height="22" viewBox="0 0 22 22" fill="none" xmlns="http://www.w3.org/2000/svg">
<path d="M2.75 5.5H4.58333H19.25" stroke="#12265E" stroke-linecap="round" stroke-linejoin="round"/>
<path d="M7.33337 5.49992V3.66659C7.33337 3.18036 7.52653 2.71404 7.87035 2.37022C8.21416 2.02641 8.68048 1.83325 9.16671 1.83325H12.8334C13.3196 1.83325 13.7859 2.02641 14.1297 2.37022C14.4736 2.71404 14.6667 3.18036 14.6667 3.66659V5.49992M17.4167 5.49992V18.3333C17.4167 18.8195 17.2236 19.2858 16.8797 19.6296C16.5359 19.9734 16.0696 20.1666 15.5834 20.1666H6.41671C5.93048 20.1666 5.46416 19.9734 5.12034 19.6296C4.77653 19.2858 4.58337 18.8195 4.58337 18.3333V5.49992H17.4167Z" stroke="#12265E" stroke-linecap="round" stroke-linejoin="round"/>
</svg>
