<svg width="97" height="14" viewBox="0 0 97 14" fill="none" xmlns="http://www.w3.org/2000/svg">
<mask id="mask0" mask-type="alpha" maskUnits="userSpaceOnUse" x="0" y="0" width="97" height="14">
<path d="M85.2838 0.96432C85.2838 0.864967 85.2875 0.76765 85.339 0.679544C85.4017 0.572478 85.4897 0.508903 85.6196 0.509118C87.1776 0.51126 88.7365 0.480892 90.2936 0.520686C93.0754 0.591867 95.5914 2.66998 96.2546 5.39445C97.1344 9.00838 94.8739 12.5913 91.2462 13.3301C90.8146 13.418 90.3774 13.4524 89.9365 13.4517C88.525 13.449 87.1134 13.4507 85.7018 13.4506C85.4111 13.4506 85.2847 13.323 85.2846 13.0258C85.2843 11.0088 85.2844 8.99194 85.2844 6.97499C85.2844 4.97143 85.2846 2.96788 85.2838 0.96432ZM87.6776 2.87093C87.6815 4.23601 87.6802 5.60113 87.6802 6.96621C87.6802 8.32239 87.6816 9.67857 87.6776 11.0348C87.6773 11.1483 87.6989 11.1856 87.8208 11.1839C88.3666 11.1763 88.9125 11.1806 89.4584 11.1806C89.8132 11.1806 90.1678 11.1809 90.5193 11.1173C91.6836 10.9069 92.6073 10.3223 93.2498 9.31886C93.8037 8.45388 93.9888 7.49704 93.8896 6.48037C93.7988 5.55143 93.459 4.72752 92.8246 4.041C92.0059 3.15501 90.9747 2.74968 89.784 2.73543C89.1272 2.72756 88.4703 2.73693 87.8136 2.73088C87.7004 2.7298 87.6773 2.76178 87.6776 2.87093ZM79.5502 6.99858C79.5502 4.98619 79.5546 2.97379 79.5452 0.961508C79.5439 0.679249 79.7517 0.496665 79.9937 0.504377C80.517 0.521035 81.0411 0.509091 81.5649 0.50968C81.8335 0.509948 81.985 0.660879 81.9851 0.930979C81.9855 4.9781 81.9855 9.02528 81.9851 13.0724C81.9851 13.3493 81.8335 13.4985 81.5552 13.4987C81.0269 13.4992 80.4987 13.4993 79.9705 13.4987C79.704 13.4984 79.5507 13.3443 79.5505 13.0758C79.5499 12.2013 79.5502 11.3267 79.5502 10.4521V6.99858ZM70.1246 13.4504C66.548 13.4328 63.716 10.5627 63.7321 6.97225C63.7483 3.36774 66.6248 0.491968 70.1962 0.509857C73.7411 0.527585 76.6248 3.44889 76.6119 7.0091C76.5987 10.6249 73.7351 13.4682 70.1246 13.4504ZM65.9454 6.99826C65.9435 9.31294 67.843 11.2243 70.1465 11.2254C72.451 11.2266 74.3528 9.31862 74.3538 7.00436C74.3548 4.68132 72.4399 2.73481 70.1526 2.73384C67.8637 2.73288 65.9473 4.67532 65.9454 6.99826ZM51.4022 1.02263C51.4039 0.704053 51.5523 0.501758 51.9062 0.504222C53.6686 0.516273 55.4312 0.500901 57.1936 0.513488C59.1374 0.52736 60.8158 2.01085 61.0672 3.9495C61.2854 5.63164 60.5887 6.89136 59.2152 7.81162C58.9973 7.95757 58.7657 8.08199 58.5209 8.17545C58.4091 8.21809 58.4145 8.25686 58.4676 8.35059C59.3149 9.8448 60.158 11.3414 61.002 12.8374C61.0282 12.884 61.0563 12.9297 61.079 12.9779C61.1954 13.2255 61.0458 13.4922 60.7733 13.4955C60.1119 13.5033 59.4504 13.4988 58.7889 13.4975C58.6276 13.4972 58.534 13.4004 58.4616 13.2644C57.7151 11.8622 56.9662 10.4612 56.2181 9.05988C56.1197 8.87542 56.0174 8.69284 55.9249 8.50533C55.8875 8.42949 55.8404 8.40881 55.7596 8.40924C55.1647 8.41261 54.5698 8.41433 53.975 8.40822C53.863 8.4071 53.8373 8.43688 53.8377 8.54753C53.8415 10.0381 53.8403 11.5287 53.8402 13.0193C53.8402 13.3591 53.7017 13.4988 53.3652 13.4988C52.8502 13.4989 52.3352 13.4992 51.8203 13.4987C51.5326 13.4984 51.3971 13.3623 51.3971 13.0723C51.3968 11.064 51.3969 9.0557 51.3969 7.04743C51.3969 5.03917 51.3917 3.03084 51.4022 1.02263ZM53.838 2.80897C53.8431 3.37975 53.8404 3.95059 53.8404 4.52143C53.8404 5.09226 53.8435 5.6631 53.8378 6.23389C53.8368 6.34658 53.8698 6.37287 53.9787 6.37239C54.8882 6.36789 55.7976 6.37041 56.7071 6.36918C56.8463 6.36902 56.9885 6.37239 57.141 6.37239C58.1231 6.37239 58.7523 5.33489 58.6656 4.33595C58.5864 3.42313 57.7701 2.68894 56.8262 2.68647C55.8724 2.68396 54.9185 2.68739 53.9647 2.68364C53.8663 2.68326 53.8371 2.70693 53.838 2.80897ZM37.3011 0.940813C37.3011 0.845745 37.3053 0.753408 37.3581 0.670605C37.4218 0.570663 37.506 0.508962 37.6307 0.509123C39.1887 0.511319 40.7475 0.480736 42.3046 0.520638C45.153 0.593586 47.7069 2.75895 48.3065 5.5607C49.0618 9.08985 46.8963 12.5031 43.3937 13.3013C42.9205 13.4092 42.4399 13.4525 41.9542 13.4516C40.5382 13.4489 39.1222 13.4507 37.7062 13.4506C37.4297 13.4506 37.302 13.3228 37.302 13.0424C37.3015 11.021 37.3017 8.9996 37.3017 6.97821C37.3017 4.96576 37.3019 2.95326 37.3011 0.940813ZM39.6973 6.95148V7.80833C39.6973 8.88825 39.6979 9.96817 39.6962 11.0481C39.6961 11.1327 39.6951 11.1924 39.8111 11.1833C39.9567 11.1719 40.104 11.1831 40.2504 11.1802C40.9467 11.1664 41.6456 11.2272 42.3391 11.1419C43.513 10.9976 44.4655 10.4522 45.1551 9.4811C45.7672 8.61911 45.9915 7.64476 45.9134 6.59499C45.8408 5.61994 45.4995 4.75517 44.8345 4.0364C44.0151 3.15084 42.982 2.74823 41.791 2.73517C41.1385 2.72799 40.4859 2.73661 39.8333 2.73104C39.7241 2.73013 39.6942 2.75509 39.6946 2.86826C39.6989 4.22932 39.6973 5.59043 39.6973 6.95148ZM31.5624 8.49308C31.5633 6.05612 31.5632 3.61921 31.5633 1.18231C31.5633 1.1288 31.562 1.07492 31.567 1.02179C31.5853 0.829243 31.7156 0.696362 31.9062 0.694969C32.4834 0.690577 33.0606 0.69047 33.6378 0.694112C33.839 0.695398 33.994 0.861379 34.0005 1.06469C34.0016 1.10036 34.0008 1.13609 34.0008 1.17181V13.0217C34.0008 13.3304 33.881 13.4272 33.5774 13.457C33.2857 13.4858 33.1006 13.3705 32.9068 13.1643C30.489 10.5916 28.0624 8.02722 25.638 5.46081C25.602 5.42273 25.5659 5.38475 25.505 5.32048V5.49235C25.505 7.99176 25.5051 10.4912 25.505 12.9906C25.5049 13.3354 25.3921 13.4505 25.0537 13.4506C24.552 13.4508 24.0503 13.451 23.5486 13.4505C23.2571 13.4502 23.1103 13.3007 23.1103 13.0036C23.1101 9.00013 23.1102 4.99661 23.1091 0.993135C23.1091 0.955182 23.0977 0.575334 23.42 0.520686C23.7423 0.466039 23.8612 0.487801 24.1673 0.813711C26.5603 3.36084 28.9532 5.90803 31.3462 8.45511C31.4094 8.52243 31.4732 8.58922 31.5403 8.65992C31.5785 8.59918 31.5623 8.54445 31.5624 8.49308ZM11.544 0.960003C11.544 0.633183 11.6681 0.509514 11.9954 0.509514C14.4373 0.50946 16.8792 0.50946 19.3212 0.509567C19.6233 0.509567 19.7705 0.656749 19.7707 0.958825C19.771 1.40069 19.771 1.84256 19.7707 2.28437C19.7705 2.60284 19.6422 2.73358 19.3294 2.73363C17.5801 2.73374 15.8308 2.73497 14.0814 2.73079C13.9653 2.73052 13.936 2.75666 13.9367 2.87529C13.9423 3.79025 13.9424 4.70521 13.9368 5.62017C13.936 5.74523 13.9606 5.78336 14.0934 5.78283C15.5052 5.77726 16.9172 5.78797 18.3289 5.77383C18.7258 5.76992 18.8886 5.94699 18.8707 6.32699C18.8517 6.73223 18.8521 7.13981 18.8711 7.54505C18.8858 7.85901 18.7098 8.05402 18.3752 8.05108C16.9501 8.03881 15.5249 8.04835 14.0997 8.04203C13.9589 8.04144 13.9361 8.08316 13.9368 8.21224C13.9423 9.18965 13.9414 10.1671 13.9374 11.1446C13.937 11.248 13.9613 11.2774 14.0676 11.2772C15.8169 11.2735 17.5662 11.2796 19.3155 11.2697C19.6131 11.2681 19.7838 11.4871 19.7752 11.7317C19.7596 12.1774 19.7712 12.6242 19.7706 13.0705C19.7702 13.3612 19.6347 13.4987 19.3483 13.4987C16.8886 13.4989 14.429 13.499 11.9693 13.4987C11.6983 13.4987 11.5442 13.341 11.5441 13.0642C11.5439 11.0424 11.544 9.02056 11.544 6.99874C11.544 4.98581 11.544 2.97288 11.544 0.960003ZM0.789905 0.99268C0.789905 0.934836 0.789798 0.876242 0.798483 0.819308C0.826774 0.633188 0.95699 0.512144 1.14267 0.511126C1.71527 0.507912 2.28786 0.507805 2.86046 0.510644C3.06633 0.511608 3.22703 0.679035 3.23012 0.888721C3.23315 1.09391 3.23086 1.2992 3.23086 1.5045C3.23086 4.70821 3.23161 7.91199 3.22804 11.1157C3.22788 11.2398 3.25004 11.2786 3.38346 11.2781C4.87039 11.2726 6.35737 11.2746 7.84435 11.2747C8.14768 11.2747 8.29185 11.4195 8.29196 11.7238C8.29212 12.1789 8.29265 12.634 8.29174 13.0892C8.29121 13.3609 8.1529 13.4986 7.87979 13.4986C5.66484 13.499 3.44995 13.4989 1.235 13.4988C0.918469 13.4988 0.789851 13.371 0.789798 13.0536C0.789425 11.0368 0.789585 9.01987 0.789585 7.00303C0.789585 4.99958 0.789532 2.99613 0.789905 0.99268Z" fill="white"/>
</mask>
<g mask="url(#mask0)">
<path d="M85.2838 0.96432C85.2838 0.864967 85.2875 0.76765 85.339 0.679544C85.4017 0.572478 85.4897 0.508903 85.6196 0.509118C87.1776 0.51126 88.7365 0.480892 90.2936 0.520686C93.0754 0.591867 95.5914 2.66998 96.2546 5.39445C97.1344 9.00838 94.8739 12.5913 91.2462 13.3301C90.8146 13.418 90.3774 13.4524 89.9365 13.4517C88.525 13.449 87.1134 13.4507 85.7018 13.4506C85.4111 13.4506 85.2847 13.323 85.2846 13.0258C85.2843 11.0088 85.2844 8.99194 85.2844 6.97499C85.2844 4.97143 85.2846 2.96788 85.2838 0.96432ZM87.6776 2.87093C87.6815 4.23601 87.6802 5.60113 87.6802 6.96621C87.6802 8.32239 87.6816 9.67857 87.6776 11.0348C87.6773 11.1483 87.6989 11.1856 87.8208 11.1839C88.3666 11.1763 88.9125 11.1806 89.4584 11.1806C89.8132 11.1806 90.1678 11.1809 90.5193 11.1173C91.6836 10.9069 92.6073 10.3223 93.2498 9.31886C93.8037 8.45388 93.9888 7.49704 93.8896 6.48037C93.7988 5.55143 93.459 4.72752 92.8246 4.041C92.0059 3.15501 90.9747 2.74968 89.784 2.73543C89.1272 2.72756 88.4703 2.73693 87.8136 2.73088C87.7004 2.7298 87.6773 2.76178 87.6776 2.87093ZM79.5502 6.99858C79.5502 4.98619 79.5546 2.97379 79.5452 0.961508C79.5439 0.679249 79.7517 0.496665 79.9937 0.504377C80.517 0.521035 81.0411 0.509091 81.5649 0.50968C81.8335 0.509948 81.985 0.660879 81.9851 0.930979C81.9855 4.9781 81.9855 9.02528 81.9851 13.0724C81.9851 13.3493 81.8335 13.4985 81.5552 13.4987C81.0269 13.4992 80.4987 13.4993 79.9705 13.4987C79.704 13.4984 79.5507 13.3443 79.5505 13.0758C79.5499 12.2013 79.5502 11.3267 79.5502 10.4521V6.99858ZM70.1246 13.4504C66.548 13.4328 63.716 10.5627 63.7321 6.97225C63.7483 3.36774 66.6248 0.491968 70.1962 0.509857C73.7411 0.527585 76.6248 3.44889 76.6119 7.0091C76.5987 10.6249 73.7351 13.4682 70.1246 13.4504ZM65.9454 6.99826C65.9435 9.31294 67.843 11.2243 70.1465 11.2254C72.451 11.2266 74.3528 9.31862 74.3538 7.00436C74.3548 4.68132 72.4399 2.73481 70.1526 2.73384C67.8637 2.73288 65.9473 4.67532 65.9454 6.99826ZM51.4022 1.02263C51.4039 0.704053 51.5523 0.501758 51.9062 0.504222C53.6686 0.516273 55.4312 0.500901 57.1936 0.513488C59.1374 0.52736 60.8158 2.01085 61.0672 3.9495C61.2854 5.63164 60.5887 6.89136 59.2152 7.81162C58.9973 7.95757 58.7657 8.08199 58.5209 8.17545C58.4091 8.21809 58.4145 8.25686 58.4676 8.35059C59.3149 9.8448 60.158 11.3414 61.002 12.8374C61.0282 12.884 61.0563 12.9297 61.079 12.9779C61.1954 13.2255 61.0458 13.4922 60.7733 13.4955C60.1119 13.5033 59.4504 13.4988 58.7889 13.4975C58.6276 13.4972 58.534 13.4004 58.4616 13.2644C57.7151 11.8622 56.9662 10.4612 56.2181 9.05988C56.1197 8.87542 56.0174 8.69284 55.9249 8.50533C55.8875 8.42949 55.8404 8.40881 55.7596 8.40924C55.1647 8.41261 54.5698 8.41433 53.975 8.40822C53.863 8.4071 53.8373 8.43688 53.8377 8.54753C53.8415 10.0381 53.8403 11.5287 53.8402 13.0193C53.8402 13.3591 53.7017 13.4988 53.3652 13.4988C52.8502 13.4989 52.3352 13.4992 51.8203 13.4987C51.5326 13.4984 51.3971 13.3623 51.3971 13.0723C51.3968 11.064 51.3969 9.0557 51.3969 7.04743C51.3969 5.03917 51.3917 3.03084 51.4022 1.02263ZM53.838 2.80897C53.8431 3.37975 53.8404 3.95059 53.8404 4.52143C53.8404 5.09226 53.8435 5.6631 53.8378 6.23389C53.8368 6.34658 53.8698 6.37287 53.9787 6.37239C54.8882 6.36789 55.7976 6.37041 56.7071 6.36918C56.8463 6.36902 56.9885 6.37239 57.141 6.37239C58.1231 6.37239 58.7523 5.33489 58.6656 4.33595C58.5864 3.42313 57.7701 2.68894 56.8262 2.68647C55.8724 2.68396 54.9185 2.68739 53.9647 2.68364C53.8663 2.68326 53.8371 2.70693 53.838 2.80897ZM37.3011 0.940813C37.3011 0.845745 37.3053 0.753408 37.3581 0.670605C37.4218 0.570663 37.506 0.508962 37.6307 0.509123C39.1887 0.511319 40.7475 0.480736 42.3046 0.520638C45.153 0.593586 47.7069 2.75895 48.3065 5.5607C49.0618 9.08985 46.8963 12.5031 43.3937 13.3013C42.9205 13.4092 42.4399 13.4525 41.9542 13.4516C40.5382 13.4489 39.1222 13.4507 37.7062 13.4506C37.4297 13.4506 37.302 13.3228 37.302 13.0424C37.3015 11.021 37.3017 8.9996 37.3017 6.97821C37.3017 4.96576 37.3019 2.95326 37.3011 0.940813ZM39.6973 6.95148V7.80833C39.6973 8.88825 39.6979 9.96817 39.6962 11.0481C39.6961 11.1327 39.6951 11.1924 39.8111 11.1833C39.9567 11.1719 40.104 11.1831 40.2504 11.1802C40.9467 11.1664 41.6456 11.2272 42.3391 11.1419C43.513 10.9976 44.4655 10.4522 45.1551 9.4811C45.7672 8.61911 45.9915 7.64476 45.9134 6.59499C45.8408 5.61994 45.4995 4.75517 44.8345 4.0364C44.0151 3.15084 42.982 2.74823 41.791 2.73517C41.1385 2.72799 40.4859 2.73661 39.8333 2.73104C39.7241 2.73013 39.6942 2.75509 39.6946 2.86826C39.6989 4.22932 39.6973 5.59043 39.6973 6.95148ZM31.5624 8.49308C31.5633 6.05612 31.5632 3.61921 31.5633 1.18231C31.5633 1.1288 31.562 1.07492 31.567 1.02179C31.5853 0.829243 31.7156 0.696362 31.9062 0.694969C32.4834 0.690577 33.0606 0.69047 33.6378 0.694112C33.839 0.695398 33.994 0.861379 34.0005 1.06469C34.0016 1.10036 34.0008 1.13609 34.0008 1.17181V13.0217C34.0008 13.3304 33.881 13.4272 33.5774 13.457C33.2857 13.4858 33.1006 13.3705 32.9068 13.1643C30.489 10.5916 28.0624 8.02722 25.638 5.46081C25.602 5.42273 25.5659 5.38475 25.505 5.32048V5.49235C25.505 7.99176 25.5051 10.4912 25.505 12.9906C25.5049 13.3354 25.3921 13.4505 25.0537 13.4506C24.552 13.4508 24.0503 13.451 23.5486 13.4505C23.2571 13.4502 23.1103 13.3007 23.1103 13.0036C23.1101 9.00013 23.1102 4.99661 23.1091 0.993135C23.1091 0.955182 23.0977 0.575334 23.42 0.520686C23.7423 0.466039 23.8612 0.487801 24.1673 0.813711C26.5603 3.36084 28.9532 5.90803 31.3462 8.45511C31.4094 8.52243 31.4732 8.58922 31.5403 8.65992C31.5785 8.59918 31.5623 8.54445 31.5624 8.49308ZM11.544 0.960003C11.544 0.633183 11.6681 0.509514 11.9954 0.509514C14.4373 0.50946 16.8792 0.50946 19.3212 0.509567C19.6233 0.509567 19.7705 0.656749 19.7707 0.958825C19.771 1.40069 19.771 1.84256 19.7707 2.28437C19.7705 2.60284 19.6422 2.73358 19.3294 2.73363C17.5801 2.73374 15.8308 2.73497 14.0814 2.73079C13.9653 2.73052 13.936 2.75666 13.9367 2.87529C13.9423 3.79025 13.9424 4.70521 13.9368 5.62017C13.936 5.74523 13.9606 5.78336 14.0934 5.78283C15.5052 5.77726 16.9172 5.78797 18.3289 5.77383C18.7258 5.76992 18.8886 5.94699 18.8707 6.32699C18.8517 6.73223 18.8521 7.13981 18.8711 7.54505C18.8858 7.85901 18.7098 8.05402 18.3752 8.05108C16.9501 8.03881 15.5249 8.04835 14.0997 8.04203C13.9589 8.04144 13.9361 8.08316 13.9368 8.21224C13.9423 9.18965 13.9414 10.1671 13.9374 11.1446C13.937 11.248 13.9613 11.2774 14.0676 11.2772C15.8169 11.2735 17.5662 11.2796 19.3155 11.2697C19.6131 11.2681 19.7838 11.4871 19.7752 11.7317C19.7596 12.1774 19.7712 12.6242 19.7706 13.0705C19.7702 13.3612 19.6347 13.4987 19.3483 13.4987C16.8886 13.4989 14.429 13.499 11.9693 13.4987C11.6983 13.4987 11.5442 13.341 11.5441 13.0642C11.5439 11.0424 11.544 9.02056 11.544 6.99874C11.544 4.98581 11.544 2.97288 11.544 0.960003ZM0.789905 0.99268C0.789905 0.934836 0.789798 0.876242 0.798483 0.819308C0.826774 0.633188 0.95699 0.512144 1.14267 0.511126C1.71527 0.507912 2.28786 0.507805 2.86046 0.510644C3.06633 0.511608 3.22703 0.679035 3.23012 0.888721C3.23315 1.09391 3.23086 1.2992 3.23086 1.5045C3.23086 4.70821 3.23161 7.91199 3.22804 11.1157C3.22788 11.2398 3.25004 11.2786 3.38346 11.2781C4.87039 11.2726 6.35737 11.2746 7.84435 11.2747C8.14768 11.2747 8.29185 11.4195 8.29196 11.7238C8.29212 12.1789 8.29265 12.634 8.29174 13.0892C8.29121 13.3609 8.1529 13.4986 7.87979 13.4986C5.66484 13.499 3.44995 13.4989 1.235 13.4988C0.918469 13.4988 0.789851 13.371 0.789798 13.0536C0.789425 11.0368 0.789585 9.01987 0.789585 7.00303C0.789585 4.99958 0.789532 2.99613 0.789905 0.99268Z" fill="white"/>
<path d="M96.4447 0.501343H0.789551V13.5013H96.4447V0.501343Z" fill="white"/>
</g>
</svg>
