<svg width="36" height="36" viewBox="0 0 36 36" fill="none" xmlns="http://www.w3.org/2000/svg">
<path d="M18 36C8.05887 36 0 27.9411 0 18C0 8.05887 8.05887 0 18 0C27.9411 0 36 8.05887 36 18C36 27.9411 27.9411 36 18 36ZM15.5574 7.51805C16.1425 6.93267 16.5078 6.07978 16.1908 5.31523C15.8499 4.49333 14.8794 4.10284 14.1625 4.62985C11.184 6.81943 10.8997 10.5369 10.6581 13.6125C10.3782 17.2494 10.0869 19.5276 7.63423 20.5207L7.39082 20.6191C6.80919 20.8541 6.42752 21.4176 6.42505 22.045C6.42073 23.143 7.53139 23.8947 8.54919 23.4826L15.5295 20.6564C15.8341 20.5331 16.16 20.78 16.1236 21.1066C15.908 23.1121 15.5091 24.6629 14.4347 25.7186C13.8407 26.3024 13.4685 27.161 13.7864 27.9308C14.1236 28.7475 15.0838 29.1409 15.8036 28.6283C18.8627 26.4498 19.1553 22.6925 19.3934 19.5843C19.4172 19.2742 19.6146 19.0043 19.903 18.8877L21.8822 18.0871C22.2044 17.9567 22.5423 18.2372 22.4735 18.5779C22.223 19.8071 22.1191 21.0936 22.0311 22.2257C21.8144 25.0869 21.582 27.1371 20.3256 28.4626C19.7644 29.0548 19.4166 29.8969 19.7289 30.6506C20.0755 31.4869 21.0689 31.8767 21.7849 31.3228C24.6307 29.1211 24.9117 25.4751 25.1432 22.4544C25.424 18.8167 25.7203 16.5339 28.1666 15.5456L28.6103 15.3658C29.1913 15.1304 29.5725 14.5672 29.5749 13.9403C29.5793 12.8421 28.4684 12.0903 27.4505 12.5026L20.391 15.3618C20.0846 15.4859 19.757 15.2371 19.7943 14.9087C20.0073 12.953 20.3912 11.4323 21.4059 10.382C21.9795 9.78829 22.3369 8.93505 22.0199 8.17282C21.6755 7.34444 20.6953 6.95306 19.9766 7.49003C17.0426 9.68217 16.7606 13.3764 16.5288 16.4363C16.5017 16.7468 16.3028 17.0159 16.014 17.1328L13.9236 17.9794C13.6017 18.1097 13.2641 17.8295 13.3329 17.4891C13.5837 16.2747 13.6771 15.0455 13.7709 13.8409C13.9921 10.9284 14.2328 8.84314 15.5574 7.51805Z" fill="white"/>
</svg>
